<?xml version="1.0" encoding="iso-8859-1"?>
<!-- Generator: Adobe Illustrator 19.0.0, SVG Export Plug-In . SVG Version: 6.00 Build 0)  -->
<svg version="1.1" id="Layer_1" xmlns="http://www.w3.org/2000/svg" xmlns:xlink="http://www.w3.org/1999/xlink" x="0px" y="0px"
	 viewBox="0 0 368.666 368.666" style="enable-background:new 0 0 368.666 368.666;" xml:space="preserve">
<g id="XMLID_450_">
	<g>
		<g>
			<path fill="white" d="M184.333,0C102.01,0,35.036,66.974,35.036,149.297c0,33.968,11.132,65.959,32.193,92.515
				c27.27,34.383,106.571,116.021,109.934,119.479l7.17,7.375l7.17-7.374c3.363-3.459,82.688-85.116,109.963-119.51
				c21.042-26.534,32.164-58.515,32.164-92.485C333.63,66.974,266.655,0,184.333,0z M285.796,229.355
				c-21.957,27.687-80.921,89.278-101.463,110.581c-20.54-21.302-79.482-82.875-101.434-110.552
				C64.67,206.4,55.036,178.707,55.036,149.297C55.036,78.002,113.038,20,184.333,20S313.63,78.002,313.63,149.297
				C313.63,178.708,304.005,206.392,285.796,229.355z"/>
			<path fill="white" d="M211.022,115.646l-26.689-53.841l-26.689,53.841l-57.325,6.604l40.577,41.755l-11.794,58.616l55.231-30.22l55.231,30.22
				l-11.794-58.616l40.577-41.755L211.022,115.646z M211.485,184.46l-27.152-14.856L157.18,184.46l5.4-26.837l-19.589-20.157
				l27.741-3.196l13.6-27.434l13.6,27.434l27.741,3.196l-19.589,20.157L211.485,184.46z"/>
		</g>
	</g>
</g>
<g>
</g>
<g>
</g>
<g>
</g>
<g>
</g>
<g>
</g>
<g>
</g>
<g>
</g>
<g>
</g>
<g>
</g>
<g>
</g>
<g>
</g>
<g>
</g>
<g>
</g>
<g>
</g>
<g>
</g>
</svg>
